General:

Title: Friday the 13th: Uncut 
Director: Sean S. Cunningham
Release Date: 9 May 1980 (USA)
Runtime: 95 min  
Genre: Horror | Mystery | Thriller   
Color: Color
IMDb Rating: 6.3/10   24,858 votes             
IMDB Link: http://www.imdb.com/title/tt0080761/
Studio: Paramount Pictures
Language: English
Subtitles: None
Sample Video: yes

Plot:

In 1957, at Camp Crystal Lake, a young boy named Jason Voorhees drowned. In 1958, two camp counselors were murdered. In 1962, fires and bad water thwarted the camp's reopening. Now, in 1979, Steve Christy finally reopens Camp Crystal Lake with the help of a few new counselors. Ignoring the warnings from a local wacko, the murders start once again while a mysterious stalker prowls the area. Is it Revenge that the killer is looking for? Who will survive the nightmare and live to tell the story?

Video:


Sorce Format: Blu-Ray
Format: H.264/MPEG-4 AVC
Format/Info: Advanced Video Codec
Format profile: High@L4.0
Format settings, CABAC: Yes
Format settings, ReFrames: 5 frames
Codec ID: avc1
Codec ID/Info: Advanced Video Coding
Duration: 1h 35mn
Bit rate mode: Variable
Bit rate: 1980 Kbps
Maximum bit rate: 5856 Kbps 
Screen Resolution: 1376 x 768
Display aspect ratio: 16:9
Frame rate mode: Constant
Frame rate: 24.000 fps
Resolution: 8 bits
Colorimetry: 4:2:0
Scan type: Progressive
Bits/(Pixel*Frame): 0.078
Stream size: 1.32 GiB (90%)

Audio:

Format: mp4a - MPEG-4 AAC LC
Format/Info: Advanced Audio Codec
Format version: Version 4
Format profile: LC
Format settings, SBR: No
Codec ID: 40
Duration: 1h 35mn
Bit rate mode: Variable
Bit rate: 210 Kbps
Maximum bit rate: 270 Kbps
Channel(s): 2 channels
Channel positions: L R
Sampling rate: 48.0 KHz
Stream size: 143 MiB (10%)

Hope you all Enjoy.

IceBane


Please Note: From what I understand this is the fabled "international" cut of the film (the U.S. theatrical version is not included on the BR disk).